<svg width="29" height="33" viewBox="0 0 29 33" fill="none" xmlns="http://www.w3.org/2000/svg">
<path d="M26.3974 29.2549L29 0.5H0L2.60256 29.2549L14.4535 32.5L26.3974 29.2549Z" fill="#2277FF"/>
<path d="M26.3973 2.79858H14.5464V29.976L24.1666 27.407L26.3973 2.79858Z" fill="#3399FF"/>
<path d="M14.2212 9.87476L6.04175 13.5255H15.1042L23.2837 9.87476H14.2212Z" fill="#FBFBFE"/>
<path d="M18.5434 21.593L19.0081 16.9958H22.6331L21.936 24.3874L14.5466 26.4156L7.01772 24.3874L6.55298 18.8437H10.1315L10.4104 21.593L14.5466 22.7198L18.5434 21.593Z" fill="#FBFBFE"/>
<path d="M23.6091 6.35913H5.39111L5.71643 9.91969L23.2837 9.87462L23.6091 6.35913Z" fill="#FBFBFE"/>
<path d="M6.04175 13.5254H22.9584L22.6277 17.0409H6.36707L6.04175 13.5254Z" fill="#FBFBFE"/>
<path d="M14.5466 17.0408V6.35913H5.39111L5.71643 9.91969H14.1283L6.04175 13.5253L6.36707 17.0408H14.5466Z" fill="#E4E9EB"/>
<path d="M14.5466 26.4156V22.7198L10.4104 21.593L10.1315 18.8438H6.55298L7.01772 24.3874L14.5466 26.4156Z" fill="#E4E9EB"/>
</svg>
