<svg width="21" height="33" viewBox="0 0 21 33" fill="none" xmlns="http://www.w3.org/2000/svg">
<g clip-path="url(#clip0_11_391)">
<path d="M5.25115 32.4999C8.14857 32.4999 10.5001 30.1106 10.5001 27.1666V21.8333H5.25115C2.35373 21.8333 0.00219727 24.2226 0.00219727 27.1666C0.00219727 30.1106 2.35373 32.4999 5.25115 32.4999Z" fill="#0ACF83"/>
<path d="M0.00219727 16.5001C0.00219727 13.5561 2.35373 11.1667 5.25115 11.1667H10.5001V21.8334H5.25115C2.35373 21.8334 0.00219727 19.4441 0.00219727 16.5001Z" fill="#A259FF"/>
<path d="M0.00244141 5.83333C0.00244141 2.88933 2.35397 0.5 5.25139 0.5H10.5003V11.1667H5.25139C2.35397 11.1667 0.00244141 8.77733 0.00244141 5.83333Z" fill="#F24E1E"/>
<path d="M10.5 0.5H15.749C18.6464 0.5 20.9979 2.88933 20.9979 5.83333C20.9979 8.77733 18.6464 11.1667 15.749 11.1667H10.5V0.5Z" fill="#FF7262"/>
<path d="M20.9979 16.5001C20.9979 19.4441 18.6464 21.8334 15.749 21.8334C12.8515 21.8334 10.5 19.4441 10.5 16.5001C10.5 13.5561 12.8515 11.1667 15.749 11.1667C18.6464 11.1667 20.9979 13.5561 20.9979 16.5001Z" fill="#1ABCFE"/>
</g>
<defs>
<clipPath id="clip0_11_391">
<rect width="21" height="32" fill="white" transform="translate(0 0.5)"/>
</clipPath>
</defs>
</svg>
