<svg width="32" height="32" viewBox="0 0 32 32" fill="none" xmlns="http://www.w3.org/2000/svg">
<g clip-path="url(#clip0_10_753)">
<path fill-rule="evenodd" clip-rule="evenodd" d="M16 0.416443C7.16 0.416443 0 7.57644 0 16.4164C0 23.4964 4.58 29.4764 10.94 31.5964C11.74 31.7364 12.04 31.2564 12.04 30.8364C12.04 30.4564 12.02 29.1964 12.02 27.8564C8 28.5964 6.96 26.8764 6.64 25.9764C6.46 25.5164 5.68 24.0964 5 23.7164C4.44 23.4164 3.64 22.6764 4.98 22.6564C6.24 22.6364 7.14 23.8164 7.44 24.2964C8.88 26.7164 11.18 26.0364 12.1 25.6164C12.24 24.5764 12.66 23.8764 13.12 23.4764C9.56 23.0764 5.84 21.6964 5.84 15.5764C5.84 13.8364 6.46 12.3964 7.48 11.2764C7.32 10.8764 6.76 9.23644 7.64 7.03644C7.64 7.03644 8.98 6.61644 12.04 8.67644C13.32 8.31644 14.68 8.13644 16.04 8.13644C17.4 8.13644 18.76 8.31644 20.04 8.67644C23.1 6.59644 24.44 7.03644 24.44 7.03644C25.32 9.23644 24.76 10.8764 24.6 11.2764C25.62 12.3964 26.24 13.8164 26.24 15.5764C26.24 21.7164 22.5 23.0764 18.94 23.4764C19.52 23.9764 20.02 24.9364 20.02 26.4364C20.02 28.5764 20 30.2964 20 30.8364C20 31.2564 20.3 31.7564 21.1 31.5964C27.42 29.4764 32 23.4764 32 16.4164C32 7.57644 24.84 0.416443 16 0.416443Z" fill="#A9C5F1"/>
</g>
<defs>
<clipPath id="clip0_10_753">
<rect width="32" height="32" fill="white"/>
</clipPath>
</defs>
</svg>
