<svg width="28" height="33" viewBox="0 0 28 33" fill="none" xmlns="http://www.w3.org/2000/svg">
<path d="M25.1429 29.0091L28 0.5H0L2.85714 29.0091L14 32.5L25.1429 29.0091Z" fill="#F27638"/>
<path d="M25.4286 2.82739H14V30.1728L23.1429 27.2638L25.4286 2.82739Z" fill="#F9874F"/>
<path d="M21.1428 24.3545L14 26.3908L13.9688 26.382L6.85711 24.3545L6.33176 18.8272H9.79091L9.99997 21.7363L14 22.8999L18 21.7363L18.446 17.0818H14H9.66547H6.16586L5.14282 6.31812H14H22.8571L22.5253 9.80902H19.1428H14H9.14282L9.4146 13.5908H14H18.7805H22.1659L21.1428 24.3545Z" fill="#F5F5F5"/>
<path d="M22.536 9.80902L22.8571 6.31812H14V9.80902H19.2627H22.536Z" fill="#FBFBFE"/>
<path d="M14 26.3908L21.1429 24.3545L22.1652 13.5908H18.2857H14V17.0817H18.4442L18 21.7363L14 22.8999L14 26.3908Z" fill="#FBFBFE"/>
</svg>
