<svg width="29" height="30" viewBox="0 0 29 30" fill="none" xmlns="http://www.w3.org/2000/svg">
<path d="M29 0.5H0V29.5H29V0.5Z" fill="#F7DF1E"/>
<path d="M19.4806 23.1563C20.0648 24.11 20.8248 24.8111 22.1689 24.8111C23.298 24.8111 24.0194 24.2468 24.0194 23.467C24.0194 22.5325 23.2783 22.2016 22.0354 21.6579L21.3541 21.3656C19.3876 20.5278 18.0813 19.4783 18.0813 17.2596C18.0813 15.2158 19.6385 13.6599 22.0722 13.6599C23.8049 13.6599 25.0505 14.2629 25.9481 15.8418L23.826 17.2044C23.3588 16.3666 22.8548 16.0365 22.0722 16.0365C21.274 16.0365 20.7681 16.5429 20.7681 17.2044C20.7681 18.0219 21.2745 18.3528 22.4437 18.8592L23.125 19.151C25.4404 20.1439 26.7477 21.1562 26.7477 23.432C26.7477 25.8855 24.8203 27.2296 22.2319 27.2296C19.7011 27.2296 18.0661 26.0236 17.266 24.4428L19.4806 23.1563ZM9.85401 23.3924C10.2821 24.1519 10.6715 24.7941 11.6078 24.7941C12.5031 24.7941 13.0679 24.4438 13.0679 23.0817V13.8155H15.793V23.1185C15.793 25.9403 14.1386 27.2245 11.7238 27.2245C9.54192 27.2245 8.27835 26.0954 7.63574 24.7354L9.85401 23.3924Z" fill="black"/>
</svg>
