<svg width="31" height="32" viewBox="0 0 31 32" fill="none" xmlns="http://www.w3.org/2000/svg">
<path d="M15.5 18.7332C16.9924 18.7332 18.2023 17.5095 18.2023 16.0001C18.2023 14.4907 16.9924 13.2671 15.5 13.2671C14.0076 13.2671 12.7977 14.4907 12.7977 16.0001C12.7977 17.5095 14.0076 18.7332 15.5 18.7332Z" fill="#61DAFB"/>
<path d="M15.5 21.5994C23.5081 21.5994 30 19.0925 30 16C30 12.9076 23.5081 10.4006 15.5 10.4006C7.49187 10.4006 1 12.9076 1 16C1 19.0925 7.49187 21.5994 15.5 21.5994Z" stroke="#61DAFB" stroke-width="2"/>
<path d="M10.7054 18.7997C14.7095 25.8139 20.102 30.2465 22.75 28.7003C25.398 27.1541 24.2987 20.2145 20.2947 13.2003C16.2906 6.18612 10.898 1.75346 8.25005 3.29969C5.60204 4.84592 6.70135 11.7855 10.7054 18.7997Z" stroke="#61DAFB" stroke-width="2"/>
<path d="M10.7054 13.2003C6.70135 20.2145 5.60204 27.1541 8.25005 28.7003C10.898 30.2465 16.2906 25.8139 20.2947 18.7997C24.2987 11.7855 25.398 4.8459 22.75 3.29967C20.102 1.75345 14.7095 6.1861 10.7054 13.2003Z" stroke="#61DAFB" stroke-width="2"/>
</svg>
