<svg width="32" height="32" viewBox="0 0 32 32" fill="none" xmlns="http://www.w3.org/2000/svg">
<g clip-path="url(#clip0_10_752)">
<path d="M0 2.35516C0 1.09497 1.05925 0.0720825 2.365 0.0720825H29.635C30.9412 0.0720825 32 1.09497 32 2.35516V29.6614C32 30.9219 30.9412 31.9441 29.635 31.9441H2.365C1.05938 31.9441 0 30.9221 0 29.6617V2.35479V2.35516Z" fill="#A9C5F1"/>
<path d="M9.7245 26.7447V12.3959H4.936V26.7447H9.725H9.7245ZM7.33125 10.4371C9.00075 10.4371 10.0401 9.33527 10.0401 7.9583C10.0089 6.54995 9.00075 5.47888 7.363 5.47888C5.72412 5.47888 4.65375 6.54996 4.65375 7.95817C4.65375 9.33514 5.69275 10.437 7.29987 10.437H7.33087L7.33125 10.4371ZM12.375 26.7447H17.1631V18.7325C17.1631 18.3042 17.1944 17.8748 17.3209 17.569C17.6669 16.7118 18.4547 15.8245 19.7779 15.8245C21.5101 15.8245 22.2035 17.1402 22.2035 19.0693V26.7447H26.9915V18.5175C26.9915 14.1103 24.6295 12.0595 21.4791 12.0595C18.8962 12.0595 17.7619 13.4973 17.1316 14.4766H17.1635V12.3964H12.3752C12.4377 13.7424 12.3749 26.7452 12.3749 26.7452L12.375 26.7447Z" fill="#060F13"/>
</g>
<defs>
<clipPath id="clip0_10_752">
<rect width="32" height="32" fill="white"/>
</clipPath>
</defs>
</svg>
