<svg width="31" height="33" viewBox="0 0 31 33" fill="none" xmlns="http://www.w3.org/2000/svg">
<path d="M2.75994 1.88909C0.636909 1.99522 0.141537 2.45511 0 3.7994V23.2916C0.0289093 24.3503 0.132851 24.7919 0.495374 25.2727L4.88297 31.0036C5.73288 32.2682 6.36394 32.5634 7.71368 32.4894L28.8379 31.2159C30.2474 31.0474 30.7272 30.6093 30.8547 29.0226V6.98325C30.8495 6.60579 30.7403 6.38459 30.1824 5.95734L23.6364 1.35845C22.5842 0.578827 21.7764 0.402738 19.9565 0.544798C19.9565 0.544798 4.88297 1.78296 2.75994 1.88909Z" fill="#FBFBFE"/>
<path d="M3.36833 2.62222C1.34728 2.72327 0.875705 3.16116 0.740967 4.44116V23.0012C0.768487 24.0092 0.867436 24.4297 1.21255 24.8875L5.38939 30.3443C6.19847 31.5484 6.79922 31.8295 8.08412 31.7591L28.1936 30.5464C29.5355 30.386 29.9922 29.9689 30.1136 28.458V7.47274C30.1086 7.11333 30.0047 6.90271 29.4736 6.4959L23.242 2.11695C22.2403 1.37462 21.4713 1.20695 19.7389 1.34222C19.7389 1.34222 5.38939 2.52116 3.36833 2.62222Z" fill="black"/>
<path d="M28.1263 26.9422L28.0926 9.19064C28.0053 8.48218 27.8607 8.21181 27.0147 8.24748L7.91578 9.35906C7.04646 9.43525 6.82475 9.69645 6.8042 10.4706V28.2896C6.88113 29.0488 7.08157 29.3475 7.94946 29.4685L26.8126 28.458C27.7713 28.3672 28.0778 28.0565 28.1263 26.9422Z" fill="#FEFEFE"/>
<path d="M3.57047 4.8792C3.13258 4.47499 3.41229 4.20544 4.31152 4.20552L20.1094 3.06025C20.4139 3.03354 21.7599 2.89184 22.3326 3.3971C22.3326 3.3971 24.421 4.94657 25.3305 5.55288C26.2399 6.1592 26.1052 6.29394 24.8589 6.29394C23.6126 6.29394 7.94942 7.30446 7.94942 7.30446C6.98941 7.37973 6.52979 7.30549 5.96205 6.7992C5.96205 6.7992 4.00836 5.28341 3.57047 4.8792Z" fill="#FBFBFE"/>
<path d="M10.1052 13.7044L11.5873 13.8054V25.4938L10.7115 25.7296C10.1508 25.9219 10.0253 26.1447 10.0715 26.7065L14.4842 26.5044C15.1485 26.3889 15.4509 26.2121 15.6968 25.4265L13.8442 25.0223V16.197L19.8736 25.5275C20.8496 26.7555 21.7055 26.7728 23.68 25.8307V12.7612L24.5557 12.6265C25.0431 12.5124 25.1732 12.2829 25.0947 11.5149L20.9515 11.7507C20.2246 11.941 20.0544 12.2117 20.0421 12.8959L21.6252 13.0981V21.317L15.5284 12.0538L11.0821 12.357C10.2555 12.5605 10.0825 12.8851 10.1052 13.7044Z" fill="black"/>
</svg>
