<svg width="29" height="30" viewBox="0 0 29 30" fill="none" xmlns="http://www.w3.org/2000/svg">
<path d="M14.3955 0.5C7.0335 0.5 7.49317 3.70929 7.49317 3.70929L7.50135 7.03422H14.5268V8.03245H4.71096C4.71096 8.03245 0 7.49538 0 14.9624C0 22.4297 4.11184 22.1649 4.11184 22.1649H6.56577V18.6998C6.56577 18.6998 6.43348 14.5664 10.612 14.5664H17.5799C17.5799 14.5664 21.4948 14.63 21.4948 10.7631V4.36941C21.4948 4.36941 22.0893 0.5 14.3955 0.5ZM10.5217 2.73595C10.6877 2.7358 10.8521 2.76855 11.0055 2.83235C11.1589 2.89614 11.2983 2.98972 11.4157 3.10772C11.5331 3.22573 11.6262 3.36584 11.6897 3.52005C11.7531 3.67426 11.7857 3.83954 11.7856 4.00642C11.7857 4.1733 11.7531 4.33858 11.6897 4.49279C11.6262 4.647 11.5331 4.78711 11.4157 4.90512C11.2983 5.02312 11.1589 5.1167 11.0055 5.18049C10.8521 5.24429 10.6877 5.27705 10.5217 5.2769C10.3557 5.27705 10.1913 5.24429 10.0379 5.18049C9.88445 5.1167 9.74506 5.02312 9.62767 4.90512C9.51028 4.78711 9.41719 4.647 9.35373 4.49279C9.29026 4.33858 9.25767 4.1733 9.25782 4.00642C9.25767 3.83954 9.29026 3.67426 9.35373 3.52005C9.41719 3.36584 9.51028 3.22573 9.62767 3.10772C9.74506 2.98972 9.88445 2.89614 10.0379 2.83235C10.1913 2.76855 10.3557 2.7358 10.5217 2.73595Z" fill="url(#paint0_linear_11_360)"/>
<path d="M14.6046 29.5C21.9667 29.5 21.507 26.2907 21.507 26.2907L21.4988 22.9659H14.4733V21.9677H24.2891C24.2891 21.9677 29 22.5048 29 15.0375C29 7.57032 24.8882 7.83515 24.8882 7.83515H22.4343V11.3001C22.4343 11.3001 22.5666 15.4335 18.3881 15.4335H11.4201C11.4201 15.4335 7.50528 15.3699 7.50528 19.2369V25.6307C7.50528 25.6307 6.91082 29.5 14.6045 29.5H14.6046ZM18.4785 27.2643C18.3125 27.2645 18.148 27.2317 17.9946 27.1679C17.8412 27.1041 17.7018 27.0105 17.5844 26.8925C17.4671 26.7745 17.374 26.6344 17.3105 26.4802C17.247 26.326 17.2144 26.1607 17.2146 25.9938C17.2144 25.827 17.247 25.6617 17.3105 25.5074C17.3739 25.3532 17.467 25.2131 17.5844 25.0951C17.7018 24.9771 17.8412 24.8835 17.9946 24.8197C18.148 24.7559 18.3124 24.7231 18.4785 24.7233C18.6445 24.7231 18.8089 24.7559 18.9623 24.8197C19.1157 24.8834 19.2551 24.977 19.3725 25.095C19.4899 25.213 19.583 25.3532 19.6464 25.5074C19.7099 25.6616 19.7425 25.8268 19.7423 25.9937C19.7425 26.1606 19.7099 26.3259 19.6464 26.4801C19.583 26.6343 19.4899 26.7744 19.3725 26.8924C19.2551 27.0104 19.1157 27.104 18.9623 27.1678C18.8089 27.2316 18.6445 27.2644 18.4785 27.2642V27.2643Z" fill="url(#paint1_linear_11_360)"/>
<defs>
<linearGradient id="paint0_linear_11_360" x1="2.78689" y1="3.10837" x2="17.2326" y2="17.3356" gradientUnits="userSpaceOnUse">
<stop stop-color="#387EB8"/>
<stop offset="1" stop-color="#366994"/>
</linearGradient>
<linearGradient id="paint1_linear_11_360" x1="11.6082" y1="12.2926" x2="27.1175" y2="26.8778" gradientUnits="userSpaceOnUse">
<stop stop-color="#FFE052"/>
<stop offset="1" stop-color="#FFC331"/>
</linearGradient>
</defs>
</svg>
