<svg width="29" height="34" viewBox="0 0 29 34" fill="none" xmlns="http://www.w3.org/2000/svg">
<path fill-rule="evenodd" clip-rule="evenodd" d="M17.284 4.28169L23.9841 8.19955C24.1776 7.99227 24.3995 7.81437 24.6432 7.67135C26.0327 6.86231 27.8051 7.34267 28.6122 8.75C29.4111 10.1573 28.9368 11.9522 27.5471 12.7696C27.3053 12.9107 27.0447 13.0158 26.7733 13.0817V20.9203C27.0417 20.9863 27.2995 21.0907 27.5389 21.2303C28.9368 22.0477 29.4111 23.8427 28.6039 25.25C27.8051 26.6572 26.0244 27.1376 24.6348 26.3286C24.3656 26.1722 24.1231 25.9728 23.9166 25.7382L17.2573 29.6319C17.3548 29.931 17.4043 30.244 17.404 30.5589C17.404 32.1769 16.106 33.5 14.5 33.5C12.894 33.5 11.596 32.1852 11.596 30.5589C11.596 30.2698 11.637 29.9906 11.7135 29.7268L5.01521 25.8101C4.82389 26.0133 4.60504 26.1879 4.3652 26.3286C2.96731 27.1376 1.19492 26.6572 0.39606 25.25C-0.402685 23.8427 0.0716229 22.0477 1.46113 21.2303C1.7005 21.0906 1.95827 20.9862 2.22668 20.9202V13.0817C1.9553 13.0158 1.6947 12.9107 1.45286 12.7696C0.06324 11.9607 -0.411068 10.1573 0.38779 8.75C1.18665 7.34267 2.9672 6.86231 4.35682 7.67135C4.59914 7.8136 4.82002 7.99036 5.01271 8.19622L11.7148 4.27733C11.6358 4.00576 11.5958 3.72409 11.596 3.44098C11.596 1.81475 12.894 0.5 14.5 0.5C16.106 0.5 17.404 1.81464 17.404 3.44098C17.404 3.7333 17.362 4.01541 17.284 4.28169ZM16.586 5.48882L23.3021 9.41586C23.1951 9.79446 23.1644 10.191 23.2119 10.5818C23.2593 10.9727 23.3838 11.3499 23.5781 11.691C23.9869 12.4112 24.6529 12.8887 25.3921 13.0748V20.9231C25.3544 20.9324 25.3169 20.9426 25.2796 20.9534L16.5079 5.56741C16.5344 5.54171 16.5605 5.51544 16.586 5.48882ZM12.4939 5.56913L3.72233 20.9549C3.6844 20.9438 3.64626 20.9335 3.60792 20.9239V13.0748C4.34708 12.8887 5.01306 12.4112 5.42189 11.691C5.61655 11.3492 5.74122 10.9712 5.78846 10.5796C5.83569 10.1879 5.80453 9.79068 5.69682 9.4115L12.411 5.48561C12.4381 5.51395 12.4657 5.54194 12.4939 5.56913ZM15.3114 6.26609L24.081 21.6484C23.8801 21.8426 23.7079 22.065 23.5697 22.3089C23.4319 22.5513 23.3288 22.8124 23.2636 23.0842H5.73658C5.6713 22.8124 5.56816 22.5513 5.43027 22.3089C5.29161 22.0667 5.11976 21.8456 4.91982 21.6522L13.6911 6.26677C13.954 6.34346 14.2264 6.38223 14.5 6.38196C14.7817 6.38196 15.0539 6.34157 15.3114 6.26609ZM16.6476 28.5776L23.3201 24.676C23.3001 24.6123 23.2822 24.548 23.2665 24.4831H5.73284C5.72355 24.5213 5.71347 24.5591 5.70271 24.5969L12.4078 28.5176C12.6786 28.2325 13.0035 28.0058 13.3631 27.8511C13.7226 27.6965 14.1094 27.6172 14.5 27.6179C14.9043 27.6172 15.3042 27.7022 15.6741 27.8675C16.044 28.0328 16.3756 28.2747 16.6476 28.5776Z" fill="#E535AB"/>
</svg>
