<svg width="29" height="30" viewBox="0 0 29 30" fill="none" xmlns="http://www.w3.org/2000/svg">
<path d="M0 0.5H29V29.5H0V0.5Z" fill="#017ACB"/>
<path d="M13.9245 11.239H15.3156V13.6405H11.5546V24.3252L11.455 24.3524C11.319 24.3887 9.52918 24.3887 9.14402 24.3479L8.8359 24.3207V13.6405H5.07495V11.239L6.26667 11.2254C6.91917 11.2163 8.59574 11.2163 9.99137 11.2254C11.387 11.2344 13.1542 11.239 13.9245 11.239ZM24.5412 23.1924C23.9884 23.7769 23.3948 24.1032 22.407 24.3705C21.9765 24.4883 21.904 24.4929 20.9344 24.4883C19.9647 24.4838 19.8876 24.4838 19.4164 24.3615C18.1975 24.0488 17.2142 23.4371 16.5436 22.5716C16.3533 22.3269 16.0406 21.8194 16.0406 21.756C16.0406 21.7379 16.0859 21.6971 16.1448 21.6699C16.2037 21.6427 16.3261 21.5657 16.4258 21.5068C16.5254 21.4479 16.7067 21.3391 16.829 21.2757C16.9514 21.2123 17.3048 21.0038 17.6129 20.818C17.9211 20.6323 18.202 20.4827 18.2337 20.4827C18.2654 20.4827 18.3243 20.5462 18.3697 20.6232C18.6415 21.0808 19.2759 21.6654 19.7245 21.8648C20.0009 21.9826 20.6126 22.114 20.9072 22.114C21.179 22.114 21.6775 21.9962 21.9448 21.8738C22.2303 21.7424 22.3753 21.611 22.5475 21.3482C22.6653 21.1624 22.6789 21.1126 22.6744 20.7591C22.6744 20.4329 22.6562 20.3423 22.5656 20.1927C22.3119 19.7758 21.9675 19.5583 20.5719 18.9421C19.1309 18.3032 18.4829 17.9226 17.9573 17.4105C17.5676 17.0299 17.4906 16.9257 17.2459 16.4499C16.9287 15.8382 16.8879 15.6388 16.8834 14.728C16.8789 14.0891 16.8925 13.8807 16.9604 13.6632C17.0556 13.3369 17.3637 12.7071 17.5042 12.5485C17.7942 12.2087 17.8984 12.1044 18.1023 11.9368C18.7186 11.4293 19.6792 11.094 20.599 11.0623C20.7033 11.0623 21.0476 11.0804 21.3694 11.103C22.2937 11.1801 22.9236 11.4066 23.5308 11.8915C23.9884 12.254 24.6817 13.1058 24.6137 13.2191C24.5684 13.2871 22.7605 14.4924 22.6426 14.5287C22.5701 14.5513 22.5203 14.5241 22.4206 14.4063C21.8044 13.6677 21.5551 13.5091 20.957 13.4729C20.5311 13.4457 20.3045 13.4955 20.019 13.6858C19.72 13.8852 19.575 14.1888 19.575 14.6102C19.5795 15.2265 19.8151 15.5165 20.6851 15.9469C21.247 16.2233 21.7273 16.4499 21.7636 16.4499C21.8179 16.4499 22.9825 17.0299 23.2861 17.2112C24.6998 18.0404 25.2753 18.8923 25.4248 20.3604C25.5336 21.466 25.2209 22.4765 24.5412 23.1924Z" fill="white"/>
</svg>
