<svg width="31" height="32" viewBox="0 0 31 32" fill="none" xmlns="http://www.w3.org/2000/svg">
<g clip-path="url(#clip0_10_773)">
<path d="M13.8467 0.613657C8.40059 1.18199 3.53442 4.76745 1.32226 9.84132C-0.10333 13.117 -0.340584 16.8887 0.67167 20.3609C1.922 24.6903 5.15634 28.3481 9.34134 30.1775C12.617 31.6031 16.3887 31.8404 19.8611 30.8281C25.0583 29.3298 29.1505 25.0625 30.4939 19.7611C32.5911 11.4533 27.4453 2.9587 19.1167 0.975324C17.2873 0.541324 15.6761 0.427451 13.8467 0.613657ZM14.0533 10.2133C15.3756 11.97 16.492 13.4167 16.5333 13.4167C16.5747 13.4167 17.9494 11.97 19.5713 10.2133L22.537 7.00999H24.2213L23.8597 7.39274C23.653 7.60891 22.3097 9.06612 20.8733 10.6267C19.437 12.187 18.0317 13.7056 17.7523 13.985L17.2567 14.512L21.1317 19.6683C23.2603 22.51 25.0067 24.8656 25.0067 24.9077C25.0067 24.9594 23.7361 24.99 22.1956 24.99L19.375 24.9797L16.7503 21.4663C14.942 19.038 14.0947 17.9937 14.012 18.0563C13.95 18.108 12.4823 19.6894 10.7467 21.5697L7.595 24.99H6.79892C6.355 24.99 5.99334 24.9689 5.99334 24.9383C5.99334 24.9077 7.63634 23.1089 9.64059 20.9497C11.6355 18.79 13.2889 16.9817 13.3089 16.9511C13.3197 16.9089 11.6767 14.667 9.66167 11.97C7.64667 9.28332 5.99334 7.06166 5.99334 7.04058C5.99334 7.02053 7.26392 7.00999 8.82467 7.00999H11.6556L14.0533 10.2133Z" fill="#A9C5F1"/>
<path d="M8.54608 8.39467C8.58721 8.467 11.1906 11.9597 14.3117 16.1339L19.995 23.7395L21.2656 23.75C22.0511 23.75 22.5267 23.7087 22.5056 23.6467C22.4961 23.595 19.9022 20.1027 16.7611 15.8967L11.0356 8.25H9.75467C8.69075 8.25 8.47334 8.27108 8.54608 8.39467Z" fill="#A9C5F1"/>
</g>
<defs>
<clipPath id="clip0_10_773">
<rect width="31" height="31" fill="white" transform="translate(0 0.5)"/>
</clipPath>
</defs>
</svg>
